<svg width="78" height="85" viewBox="0 0 78 85" fill="none" xmlns="http://www.w3.org/2000/svg">
<path d="M13.0126 71.5651C10.5999 71.5651 8.34541 70.7341 6.72377 69.1916C4.66705 67.2535 3.67825 64.3266 4.03422 61.1625L5.49765 48.3475C5.77451 45.9349 7.23795 42.7311 8.93869 40.9908L41.4111 6.62017C49.5193 -1.96266 57.9835 -2.19998 66.5663 5.90823C75.1491 14.0164 75.3864 22.4806 67.2782 31.0634L34.8059 65.4341C33.1447 67.2139 30.0596 68.8751 27.6469 69.2711L14.9111 71.446C14.2387 71.4856 13.6454 71.5651 13.0126 71.5651ZM54.1073 5.86868C51.0618 5.86868 48.4118 7.76719 45.7223 10.6149L13.2499 45.0256C12.4588 45.8562 11.5491 47.8338 11.3909 48.9808L9.9275 61.7953C9.76929 63.1005 10.0857 64.1684 10.7976 64.8408C11.5096 65.5132 12.5775 65.7505 13.8827 65.5528L26.6185 63.3778C27.7655 63.18 29.664 62.1513 30.4551 61.3207L62.9275 26.95C67.832 21.7291 69.6118 16.9037 62.4529 10.1799C59.2887 7.13435 56.5596 5.86868 54.1073 5.86868Z" fill="#F9AA01"/>
<path d="M59.6862 37.6675C59.6071 37.6675 59.4884 37.6675 59.4093 37.6675C47.069 36.4414 37.1414 27.0677 35.2429 14.8065C35.0056 13.1849 36.1131 11.6819 37.7347 11.4051C39.3564 11.1677 40.8594 12.2752 41.1362 13.8968C42.6392 23.4685 50.3914 30.8252 60.0422 31.7744C61.6638 31.9326 62.8504 33.3961 62.6922 35.0175C62.4944 36.5205 61.1892 37.6675 59.6862 37.6675Z" fill="#F9AA01"/>
<path d="M74.1604 84.3401H2.96642C1.34477 84.3401 0 82.9953 0 81.3736C0 79.752 1.34477 78.4072 2.96642 78.4072H74.1604C75.782 78.4072 77.1268 79.752 77.1268 81.3736C77.1268 82.9953 75.782 84.3401 74.1604 84.3401Z" fill="#F9AA01"/>
</svg>
